<svg width="129" height="44" viewBox="0 0 129 44" fill="none" xmlns="http://www.w3.org/2000/svg">
<path d="M67.864 14.084H61.564L60.322 17H57.91L63.58 4.4H65.884L71.572 17H69.124L67.864 14.084ZM67.09 12.248L64.714 6.74L62.356 12.248H67.09ZM75.1004 8.792C75.7484 7.784 76.8884 7.28 78.5204 7.28V9.422C78.3284 9.386 78.1544 9.368 77.9984 9.368C77.1224 9.368 76.4384 9.626 75.9464 10.142C75.4544 10.646 75.2084 11.378 75.2084 12.338V17H72.9584V7.388H75.1004V8.792ZM86.5587 16.478C86.2947 16.694 85.9707 16.856 85.5867 16.964C85.2147 17.072 84.8187 17.126 84.3987 17.126C83.3427 17.126 82.5267 16.85 81.9507 16.298C81.3747 15.746 81.0867 14.942 81.0867 13.886V9.26H79.5027V7.46H81.0867V5.264H83.3367V7.46H85.9107V9.26H83.3367V13.832C83.3367 14.3 83.4507 14.66 83.6787 14.912C83.9067 15.152 84.2367 15.272 84.6687 15.272C85.1727 15.272 85.5927 15.14 85.9287 14.876L86.5587 16.478ZM68.296 32.556H70.51V37.578C69.862 38.094 69.106 38.49 68.242 38.766C67.378 39.042 66.49 39.18 65.578 39.18C64.294 39.18 63.136 38.904 62.104 38.352C61.072 37.788 60.262 37.014 59.674 36.03C59.086 35.046 58.792 33.936 58.792 32.7C58.792 31.464 59.086 30.354 59.674 29.37C60.262 28.386 61.072 27.618 62.104 27.066C63.148 26.502 64.318 26.22 65.614 26.22C66.67 26.22 67.63 26.394 68.494 26.742C69.358 27.09 70.084 27.6 70.672 28.272L69.196 29.712C68.236 28.752 67.078 28.272 65.722 28.272C64.834 28.272 64.042 28.458 63.346 28.83C62.662 29.202 62.122 29.724 61.726 30.396C61.342 31.068 61.15 31.836 61.15 32.7C61.15 33.54 61.342 34.296 61.726 34.968C62.122 35.64 62.662 36.168 63.346 36.552C64.042 36.936 64.828 37.128 65.704 37.128C66.688 37.128 67.552 36.912 68.296 36.48V32.556ZM77.0523 29.28C78.4683 29.28 79.5483 29.622 80.2923 30.306C81.0483 30.978 81.4263 31.998 81.4263 33.366V39H79.3023V37.83C79.0263 38.25 78.6303 38.574 78.1143 38.802C77.6103 39.018 76.9983 39.126 76.2783 39.126C75.5583 39.126 74.9283 39.006 74.3883 38.766C73.8483 38.514 73.4283 38.172 73.1283 37.74C72.8403 37.296 72.6963 36.798 72.6963 36.246C72.6963 35.382 73.0143 34.692 73.6503 34.176C74.2983 33.648 75.3123 33.384 76.6923 33.384H79.1763V33.24C79.1763 32.568 78.9723 32.052 78.5643 31.692C78.1683 31.332 77.5743 31.152 76.7823 31.152C76.2423 31.152 75.7083 31.236 75.1803 31.404C74.6643 31.572 74.2263 31.806 73.8663 32.106L72.9843 30.468C73.4883 30.084 74.0943 29.79 74.8023 29.586C75.5103 29.382 76.2603 29.28 77.0523 29.28ZM76.7463 37.488C77.3103 37.488 77.8083 37.362 78.2403 37.11C78.6843 36.846 78.9963 36.474 79.1763 35.994V34.878H76.8543C75.5583 34.878 74.9103 35.304 74.9103 36.156C74.9103 36.564 75.0723 36.888 75.3963 37.128C75.7203 37.368 76.1703 37.488 76.7463 37.488ZM84.3139 25.644H86.5639V39H84.3139V25.644ZM89.517 25.644H91.767V39H89.517V25.644ZM103.756 34.248C103.756 34.404 103.744 34.626 103.72 34.914H96.1781C96.3101 35.622 96.6521 36.186 97.2041 36.606C97.7681 37.014 98.4641 37.218 99.2921 37.218C100.348 37.218 101.218 36.87 101.902 36.174L103.108 37.56C102.676 38.076 102.13 38.466 101.47 38.73C100.81 38.994 100.066 39.126 99.2381 39.126C98.1821 39.126 97.2521 38.916 96.4481 38.496C95.6441 38.076 95.0201 37.494 94.5761 36.75C94.1441 35.994 93.9281 35.142 93.9281 34.194C93.9281 33.258 94.1381 32.418 94.5581 31.674C94.9901 30.918 95.5841 30.33 96.3401 29.91C97.0961 29.49 97.9481 29.28 98.8961 29.28C99.8321 29.28 100.666 29.49 101.398 29.91C102.142 30.318 102.718 30.9 103.126 31.656C103.546 32.4 103.756 33.264 103.756 34.248ZM98.8961 31.08C98.1761 31.08 97.5641 31.296 97.0601 31.728C96.5681 32.148 96.2681 32.712 96.1601 33.42H101.614C101.518 32.724 101.224 32.16 100.732 31.728C100.24 31.296 99.6281 31.08 98.8961 31.08ZM108.059 30.792C108.707 29.784 109.847 29.28 111.479 29.28V31.422C111.287 31.386 111.113 31.368 110.957 31.368C110.081 31.368 109.397 31.626 108.905 32.142C108.413 32.646 108.167 33.378 108.167 34.338V39H105.917V29.388H108.059V30.792ZM122.74 29.388L118.24 39.774C117.82 40.818 117.31 41.55 116.71 41.97C116.11 42.402 115.384 42.618 114.532 42.618C114.052 42.618 113.578 42.54 113.11 42.384C112.642 42.228 112.258 42.012 111.958 41.736L112.858 40.08C113.074 40.284 113.326 40.446 113.614 40.566C113.914 40.686 114.214 40.746 114.514 40.746C114.91 40.746 115.234 40.644 115.486 40.44C115.75 40.236 115.99 39.894 116.206 39.414L116.368 39.036L112.174 29.388H114.514L117.538 36.498L120.58 29.388H122.74Z" fill="white"/>
<path d="M18.0884 21.0447L15.6282 23.4705C13.9844 23.4338 11.7094 24.0159 10.7273 27.2323C9.97659 28.9346 8 28.8487 8 28.8487C12.1039 33.4019 16.9407 30.8214 18.0454 29.7026C19.0157 28.719 19.1555 27.5166 19.0516 26.5549L21.3407 24.2978L18.0884 21.0447ZM16.9539 28.6253C16.1852 29.3385 12.7492 30.9284 10.7273 29.387C10.7273 29.387 11.4312 28.8378 11.9641 27.7354C13.2367 24.3549 16.4086 24.8548 16.4086 24.8548L17.4993 25.9322C17.5102 25.9424 18.3141 27.3643 16.9539 28.6253ZM32.322 10.2204C31.4181 9.32823 29.9525 9.32823 29.0494 10.2204L19.2001 19.9471L22.4525 23.1994L32.322 13.4517C33.226 12.5595 33.226 11.1126 32.322 10.2204Z" fill="white"/>
<rect x="0.5" y="0.5" width="40" height="40" rx="2.5" stroke="white"/>
</svg>
